<?xml version="1.0" standalone="no"?>
<!DOCTYPE svg PUBLIC "-//W3C//DTD SVG 20010904//EN"
 "http://www.w3.org/TR/2001/REC-SVG-20010904/DTD/svg10.dtd">
<svg version="1.0" xmlns="http://www.w3.org/2000/svg"
 width="800.000000pt" height="800.000000pt" viewBox="0 0 800.000000 800.000000"
 preserveAspectRatio="xMidYMid meet">
<metadata>
Created by potrace 1.11, written by Peter Selinger 2001-2013
</metadata>
<g transform="translate(0.000000,800.000000) scale(0.100000,-0.100000)"
fill="#000000" stroke="none">
<path d="M1104 6928 c-110 -16 -195 -91 -228 -201 -10 -34 -14 -121 -13 -346
0 -166 -2 -303 -4 -305 -2 -3 -45 -7 -95 -10 -146 -9 -278 -58 -399 -149 -69
-52 -101 -86 -160 -171 -54 -77 -78 -131 -104 -231 -20 -79 -21 -93 -20 -1910
0 -1783 1 -1832 20 -1905 78 -298 319 -511 619 -547 30 -4 1513 -7 3295 -7
2629 0 3252 2 3305 13 147 29 255 82 357 174 32 28 61 57 65 62 3 6 18 24 32
40 40 46 104 182 126 265 18 73 19 125 17 1930 l-2 1855 -27 76 c-54 154 -135
267 -253 356 -106 81 -251 138 -372 148 -26 2 -1185 4 -2574 4 l-2526 1 0 228
0 227 1861 0 c1024 0 1867 -4 1874 -8 6 -5 12 -16 12 -26 0 -29 68 -123 113
-157 90 -66 94 -67 500 -68 398 -2 437 2 512 51 53 35 91 77 123 138 23 44 26
62 27 145 0 85 -3 100 -28 145 -49 88 -116 146 -202 175 -33 12 -522 14 -2921
15 -1584 0 -2903 -3 -2930 -7z m1556 -1822 c32 -7 68 -14 100 -20 122 -20 331
-101 459 -177 80 -47 203 -141 282 -216 204 -195 354 -452 424 -727 34 -135
40 -190 40 -386 0 -143 -5 -194 -23 -282 -103 -483 -402 -869 -837 -1078 -90
-43 -217 -90 -285 -106 -56 -13 -168 -32 -220 -38 -60 -7 -263 -9 -295 -2 -11
2 -47 7 -80 10 -75 9 -198 39 -290 72 -374 134 -693 420 -861 771 -39 82 -98
242 -110 297 -33 155 -37 195 -38 351 -1 94 2 193 6 222 12 80 37 192 54 243
9 25 17 50 18 55 1 6 10 27 19 49 9 21 17 41 17 43 0 14 97 195 133 247 231
344 576 576 972 655 55 11 116 22 135 24 51 5 350 0 380 -7z m3175 -385 c47
-33 85 -100 85 -151 0 -92 1 -90 -413 -505 -216 -216 -407 -400 -426 -409 -48
-25 -88 -28 -148 -11 -58 17 -112 70 -129 127 -13 43 -9 110 10 146 25 48 786
803 831 824 56 26 136 18 190 -21z m1081 -76 c93 -39 139 -165 95 -260 -13
-28 -300 -321 -922 -941 -842 -839 -907 -902 -949 -912 -162 -39 -297 114
-235 266 11 26 281 303 908 930 491 491 905 900 922 909 63 34 114 36 181 8z
m73 -1100 c35 -9 101 -63 113 -94 27 -65 29 -121 7 -172 -25 -55 -781 -812
-833 -834 -74 -31 -169 -11 -223 47 -53 56 -68 150 -34 216 11 21 193 212 411
429 321 321 399 394 433 406 41 13 75 14 126 2z"/>
<path d="M2778 4335 c-2 -2 -21 -6 -42 -9 -63 -10 -180 -72 -240 -127 l-56
-51 -49 44 c-164 148 -402 178 -595 75 -113 -60 -223 -193 -260 -314 -30 -98
-30 -236 1 -333 2 -8 4 -16 4 -18 -3 -8 57 -113 83 -147 17 -22 190 -197 384
-390 379 -377 390 -385 466 -364 26 7 127 102 424 397 359 356 392 392 422
455 105 224 68 460 -100 628 -101 102 -210 150 -352 154 -48 1 -88 1 -90 0z"/>
</g>
</svg>
